<svg xmlns="http://www.w3.org/2000/svg" version="1.1" xmlns:xlink="http://www.w3.org/1999/xlink" xmlns:svgjs="http://svgjs.dev/svgjs" width="1000" height="222" viewBox="0 0 1000 222"><g transform="matrix(1,0,0,1,-0.6060606060606233,-0.5590540169698244)"><svg viewBox="0 0 396 88" data-background-color="#ffffff" preserveAspectRatio="xMidYMid meet" height="222" width="1000" xmlns="http://www.w3.org/2000/svg" xmlns:xlink="http://www.w3.org/1999/xlink"><g id="tight-bounds" transform="matrix(1,0,0,1,0.2400000000000091,0.22160699771777104)"><svg viewBox="0 0 395.52 87.55678600456447" height="87.55678600456447" width="395.52"><g><svg viewBox="0 0 523.2576709879957 115.83424333521123" height="87.55678600456447" width="395.52"><g transform="matrix(1,0,0,1,127.73767098799563,32.70611408364029)"><svg viewBox="0 0 395.52 50.422015167930645" height="50.422015167930645" width="395.52"><g id="textblocktransform"><svg viewBox="0 0 395.52 50.422015167930645" height="50.422015167930645" width="395.52" id="textblock"><g><svg viewBox="0 0 395.52 50.422015167930645" height="50.422015167930645" width="395.52"><g transform="matrix(1,0,0,1,0,0)"><svg width="395.52" viewBox="1.5 -34.900001525878906 276.8800048828125 35.30000305175781" height="50.422015167930645" data-palette-color="#53be66"><path d="M16.15-29.25L16.15-29.25Q12.75-29.25 10.88-26.65 9-24.05 9-17.6L9-17.6Q9-5.25 15.8-5.25L15.8-5.25Q18.5-5.25 20.6-6.1L20.6-6.1 20.6-11.75Q18.3-12.5 17.45-13.6L17.45-13.6 17.95-17.55 29.65-17.55 30.15-13.6Q29.5-12.8 27.8-12.05L27.8-12.05 27.8-2.8Q25.4-1.05 22.53-0.33 19.65 0.4 15.35 0.4L15.35 0.4Q8.2 0.4 4.85-3.68 1.5-7.75 1.5-16.93 1.5-26.1 5.48-30.5 9.45-34.9 16.38-34.9 23.3-34.9 27.7-31.75L27.7-31.75Q27.7-31.45 27.7-30.6 27.7-29.75 27.35-27.7 27-25.65 26.35-24.35L26.35-24.35 21.75-24.35Q21-25.75 20.75-28.5L20.75-28.5Q18.6-29.25 16.15-29.25ZM59.65-24.4L59.65-24.4Q59.65-21 57.52-18.7 55.4-16.4 52.2-15.2L52.2-15.2Q54.7-14.15 55.5-12.65L55.5-12.65 59.15-5.7Q61.5-4.9 62.35-3.85L62.35-3.85 61.85 0 53.4 0 47.65-12.25Q46.85-14.1 45.8-14.1L45.8-14.1 42.55-14.1 42.55-6.1Q46.2-5.3 47.1-4.15L47.1-4.15 46.6 0 33.1 0 32.6-4.15Q33.25-5 35.35-5.8L35.35-5.8 35.35-28.65Q33.3-29.4 32.6-30.35L32.6-30.35 33.1-34.5 45.85-34.5Q52.85-34.4 56.25-32.25 59.65-30.1 59.65-24.4ZM45.5-29.05L45.5-29.05 42.55-29.05 42.55-19.55 45.4-19.55Q48.8-19.55 50.47-20.58 52.15-21.6 52.15-24.25 52.15-26.9 50.45-27.98 48.75-29.05 45.5-29.05ZM87.7-8.7L87.7 0 64.5 0 64-4.15Q64.65-5 66.75-5.8L66.75-5.8 66.75-28.65Q64.7-29.4 64-30.35L64-30.35 64.5-34.5 87.3-34.5 87.3-25.8 83.59-25.35Q82.45-26.35 81.75-29.05L81.75-29.05 73.95-29.05 73.95-20.45 80.9-20.45Q81.5-21.95 82.15-22.55L82.15-22.55 85.3-22.2 85.3-13.3 82.15-12.9Q81.5-13.4 80.9-15L80.9-15 73.95-15 73.95-5.45 82.15-5.45Q82.8-8.05 84-9.15L84-9.15 87.7-8.7ZM114.64-8.7L114.64 0 91.44 0 90.94-4.15Q91.59-5 93.69-5.8L93.69-5.8 93.69-28.65Q91.64-29.4 90.94-30.35L90.94-30.35 91.44-34.5 114.24-34.5 114.24-25.8 110.54-25.35Q109.39-26.35 108.69-29.05L108.69-29.05 100.89-29.05 100.89-20.45 107.84-20.45Q108.44-21.95 109.09-22.55L109.09-22.55 112.24-22.2 112.24-13.3 109.09-12.9Q108.44-13.4 107.84-15L107.84-15 100.89-15 100.89-5.45 109.09-5.45Q109.74-8.05 110.94-9.15L110.94-9.15 114.64-8.7ZM125.94-18.85L125.94-18.85 125.94-5.7Q127.79-5 128.69-3.85L128.69-3.85 128.19 0 118.39 0 117.89-3.85Q118.79-5 120.64-5.7L120.64-5.7 120.64-28.8Q118.59-29.55 117.79-30.65L117.79-30.65 118.29-34.5 128.59-34.5 138.54-15.1Q139.64-13 140.69-9.5L140.69-9.5 141.04-8.3 141.59-8.5Q140.89-12.85 140.89-15.8L140.89-15.8 140.89-28.75Q139.09-29.45 138.14-30.65L138.14-30.65 138.64-34.5 148.44-34.5 148.94-30.65Q147.99-29.45 146.19-28.75L146.19-28.75 146.19 0 138.34 0 128.29-19.55Q127.19-21.65 126.14-25.2L126.14-25.2 125.79-26.35 125.24-26.15Q125.94-21.8 125.94-18.85ZM184.14-18.7L184.14-18.7 179.94 0.25 172.24 0.25 164.24-28.65Q162.19-29.4 161.49-30.35L161.49-30.35 161.99-34.5 173.53-34.5 174.03-30.35Q173.19-29.35 171.34-28.7L171.34-28.7 174.89-13.95Q175.69-10.75 176.14-7.6L176.14-7.6 176.24-6.75 176.94-6.75Q176.99-9.7 177.89-13.85L177.89-13.85 182.39-34.15 190.04-34.15 194.54-13.95Q195.34-10.3 195.64-7.6L195.64-7.6 195.74-6.7 196.44-6.7Q196.54-9.75 197.64-13.85L197.64-13.85 201.59-28.5Q199.49-29.25 198.69-30.35L198.69-30.35 199.19-34.5 210.24-34.5 210.74-30.35Q209.79-29.15 207.39-28.4L207.39-28.4 198.99 0.25 191.14 0.25 187.09-18.65Q186.39-22.05 186.04-25.3L186.04-25.3 185.94-26.3 185.24-26.3Q185.04-22.85 184.14-18.7ZM212.38-34.5L224.08-34.5 224.58-30.35Q223.78-29.4 221.83-28.65L221.83-28.65 221.83-5.8Q223.83-5 224.58-4.15L224.58-4.15 224.08 0 212.38 0 211.88-4.15Q212.53-5 214.63-5.8L214.63-5.8 214.63-28.65Q212.58-29.4 211.88-30.35L211.88-30.35 212.38-34.5ZM243.18-29.05L243.18-29.05Q241.48-29.5 239.63-29.5 237.78-29.5 236.66-28.58 235.53-27.65 235.53-25.98 235.53-24.3 236.38-23.35 237.23-22.4 239.73-21.7L239.73-21.7 244.18-20.4Q247.78-19.35 249.91-17.13 252.03-14.9 252.03-10.6L252.03-10.6Q252.03-5.5 248.36-2.55 244.68 0.4 239.23 0.4L239.23 0.4Q236.23 0.4 233.06-0.38 229.88-1.15 227.78-2.55L227.78-2.55Q227.78-2.85 227.78-3.7 227.78-4.55 228.13-6.6 228.48-8.65 229.13-9.95L229.13-9.95 233.88-9.95Q234.68-8.4 234.83-5.8L234.83-5.8Q236.58-5.05 238.91-5.05 241.23-5.05 242.73-6.15 244.23-7.25 244.23-9.3L244.23-9.3Q244.23-10.25 244.08-10.88 243.93-11.5 243.16-12.23 242.38-12.95 240.93-13.4L240.93-13.4 235.78-14.9Q227.93-17.15 227.93-24.9L227.93-24.9Q227.93-29.45 231.23-32.18 234.53-34.9 239.86-34.9 245.18-34.9 250.28-32.5L250.28-32.5Q250.28-32.2 250.28-31.35 250.28-30.5 249.93-28.45 249.58-26.4 248.93-25.1L248.93-25.1 244.18-25.1Q243.33-26.3 243.18-29.05ZM278.38-8.7L278.38 0 255.18 0 254.68-4.15Q255.33-5 257.43-5.8L257.43-5.8 257.43-28.65Q255.38-29.4 254.68-30.35L254.68-30.35 255.18-34.5 277.98-34.5 277.98-25.8 274.28-25.35Q273.13-26.35 272.43-29.05L272.43-29.05 264.63-29.05 264.63-20.45 271.58-20.45Q272.18-21.95 272.83-22.55L272.83-22.55 275.98-22.2 275.98-13.3 272.83-12.9Q272.18-13.4 271.58-15L271.58-15 264.63-15 264.63-5.45 272.83-5.45Q273.48-8.05 274.68-9.15L274.68-9.15 278.38-8.7Z" opacity="1" transform="matrix(1,0,0,1,0,0)" fill="#53be66" class="undefined-text-0" data-fill-palette-color="primary" id="text-0"></path></svg></g></svg></g></svg></g></svg></g><g><svg viewBox="0 0 115.83424333521123 115.83424333521123" height="115.83424333521123" width="115.83424333521123"><g><svg></svg></g><g id="icon-0"><svg viewBox="0 0 115.83424333521123 115.83424333521123" height="115.83424333521123" width="115.83424333521123"><g><rect width="105.32335829183096" height="105.32335829183096" x="5.255442521690135" y="5.255442521690135" fill="#53be66" data-fill-palette-color="accent"></rect><rect width="105.32335829183096" height="105.32335829183096" x="10.510885043380274" y="-3.552713678800501e-15" fill="#53be66" opacity="0.5" data-fill-palette-color="accent"></rect></g><g transform="matrix(1,0,0,1,34.4654539277726,15.015550061971823)"><svg viewBox="0 0 46.90333547966602 85.80314321126758" height="85.80314321126758" width="46.90333547966602"><g><svg xmlns="http://www.w3.org/2000/svg" xmlns:xlink="http://www.w3.org/1999/xlink" version="1.0" x="0" y="0" viewBox="27.111968994140625 8.129518508911133 45.77606964111328 83.740966796875" enable-background="new 0 0 100 100" xml:space="preserve" height="85.80314321126758" width="46.90333547966602" class="icon-s-0" data-fill-palette-color="background" id="s-0"><path d="M72.811 62.143L66.951 90.143c-0.122 0.975-0.964 1.728-1.971 1.727H35.02l0 0c-0.919 0-1.75-0.642-1.949-1.583L27.112 61.589V49.517c0-1.108 0.886-1.994 1.994-1.994h18.895v-9.813l-5.516-0.155c-1.65-0.554-17.788-6.457-14.553-20.368 0.343-1.495 4.807-8.462 13.933-3.334 4.32-7.631 11.951-7.631 16.259 0 9.857-5.538 13.778 2.902 13.789 2.924 0.066 0.133 0.111 0.277 0.144 0.41 3.411 14.642-14.631 20.402-14.686 20.423l-5.383 0.1v9.813h18.906c1.096 0 1.994 0.886 1.994 1.994L72.811 62.143z" fill="#ffffff" data-fill-palette-color="background"></path></svg></g></svg></g></svg></g></svg></g></svg></g><defs></defs></svg><rect width="395.52" height="87.55678600456447" fill="none" stroke="none" visibility="hidden"></rect></g></svg></g></svg>