<svg xmlns="http://www.w3.org/2000/svg" version="1.1" xmlns:xlink="http://www.w3.org/1999/xlink" xmlns:svgjs="http://svgjs.dev/svgjs" width="1000" height="563" viewBox="0 0 1000 563"><g transform="matrix(1,0,0,1,-0.6060606060606233,0.5886016789913242)"><svg viewBox="0 0 396 223" data-background-color="#ffffff" preserveAspectRatio="xMidYMid meet" height="563" width="1000" xmlns="http://www.w3.org/2000/svg" xmlns:xlink="http://www.w3.org/1999/xlink"><g id="tight-bounds" transform="matrix(1,0,0,1,0.2400000000000091,-0.23314062951166648)"><svg viewBox="0 0 395.52 223.46628125902333" height="223.46628125902333" width="395.52"><g><svg viewBox="0 0 397.4975999999999 224.5836126653184" height="223.46628125902333" width="395.52"><g><rect width="397.4975999999999" height="4.873922293859053" x="0" y="125.42605785033493" fill="#2ecc40" opacity="1" stroke-width="0" stroke="transparent" fill-opacity="1" class="rect-o-0" data-fill-palette-color="secondary" rx="1%" id="o-0" data-palette-color="#2ecc40"></rect></g><g transform="matrix(1,0,0,1,0.9887999999999693,143.05893902864176)"><svg viewBox="0 0 395.52 81.52467363667665" height="81.52467363667665" width="395.52"><g id="textblocktransform"><svg viewBox="0 0 395.52 81.52467363667665" height="81.52467363667665" width="395.52" id="textblock"><g><svg viewBox="0 0 395.52 54.04598046581517" height="54.04598046581517" width="395.52"><g transform="matrix(1,0,0,1,0,0)"><svg width="395.52" viewBox="1.1299999952316284 -35.52000045776367 266.17999267578125 36.369998931884766" height="54.04598046581517" data-palette-color="#2ecc40"><path d="M16.28 0.85L16.28 0.85Q11.35 0.85 7.98-1.24 4.6-3.33 2.86-7.39 1.13-11.45 1.13-17.4L1.13-17.4Q1.13-21.83 2.36-25.21 3.6-28.6 5.8-30.89 8-33.18 10.93-34.35 13.85-35.52 17.23-35.52L17.23-35.52Q21.03-35.52 23.63-34.35 26.23-33.18 28.25-31.25L28.25-31.25 23.95-26.8Q22.38-28.2 20.93-28.88 19.48-29.55 17.63-29.55L17.63-29.55Q15.88-29.55 14.41-28.86 12.95-28.18 11.86-26.71 10.78-25.25 10.18-22.94 9.58-20.63 9.58-17.35L9.58-17.35Q9.58-12.83 10.31-10.15 11.05-7.48 12.55-6.31 14.05-5.15 16.35-5.15L16.35-5.15Q17.57-5.15 18.65-5.44 19.73-5.73 20.65-6.2L20.65-6.2 20.65-14.13 16.3-14.13 15.5-19.88 28.4-19.88 28.4-2.65Q25.8-1.05 22.81-0.1 19.83 0.85 16.28 0.85ZM58.07-24.13L58.07-24.13Q58.07-21.65 57.15-19.8 56.22-17.95 54.65-16.68 53.07-15.4 51.12-14.63L51.12-14.63 60.2 0 50.92 0 43.42-13.25 41.1-13.25 41.1 0 32.9 0 32.9-34.65 43.8-34.65Q50.87-34.65 54.47-32.08 58.07-29.5 58.07-24.13ZM49.62-24.13L49.62-24.13Q49.62-26.63 48.16-27.76 46.7-28.9 43.82-28.9L43.82-28.9 41.1-28.9 41.1-18.88 44.15-18.88Q46.82-18.88 48.22-20.13 49.62-21.38 49.62-24.13ZM86.47-28.8L72.84-28.8 72.84-20.48 84.84-20.48 84.84-14.73 72.84-14.73 72.84-5.88 87.32-5.88 87.32 0 64.65 0 64.65-34.65 87.3-34.65 86.47-28.8ZM116.47-28.8L102.84-28.8 102.84-20.48 114.84-20.48 114.84-14.73 102.84-14.73 102.84-5.88 117.32-5.88 117.32 0 94.64 0 94.64-34.65 117.29-34.65 116.47-28.8ZM147.39 0L137.44 0 128.31-27.88Q128.49-26.75 128.7-25.16 128.92-23.58 129.12-21.64 129.31-19.7 129.44-17.53 129.56-15.35 129.56-13.08L129.56-13.08 129.56 0 122.59 0 122.59-34.65 132.81-34.65 141.67-6.93Q141.39-8.5 141.1-10.69 140.81-12.88 140.62-15.58 140.42-18.28 140.42-21.38L140.42-21.38 140.42-34.65 147.39-34.65 147.39 0ZM173.01-34.65L180.14-34.65 176.09 0 167.56 0 165.04-24.78 162.26 0 153.59 0 149.84-34.65 157.51-34.65 158.69-7 161.56-30.65 168.61-30.65 171.29-7 173.01-34.65ZM183.74-34.65L206.24-34.65 206.24-28.65 199.09-28.65 199.09-6.03 206.24-6.03 206.24 0 183.74 0 183.74-6.03 190.89-6.03 190.89-28.65 183.74-28.65 183.74-34.65ZM238.38-10.13L238.38-10.13Q238.38-6.9 236.7-4.42 235.01-1.95 231.86-0.55 228.71 0.85 224.28 0.85L224.28 0.85Q219.38 0.85 216.07-0.59 212.76-2.02 210.58-4.15L210.58-4.15 214.73-8.75Q216.66-7.08 218.98-6.16 221.31-5.25 224.08-5.25L224.08-5.25Q225.81-5.25 227.11-5.75 228.41-6.25 229.13-7.2 229.86-8.15 229.86-9.5L229.86-9.5Q229.86-10.78 229.28-11.65 228.71-12.53 227.35-13.23 225.98-13.93 223.56-14.65L223.56-14.65Q219.51-15.9 217.05-17.4 214.58-18.9 213.47-20.88 212.36-22.85 212.36-25.48L212.36-25.48Q212.36-28.65 214.12-30.9 215.88-33.15 218.86-34.34 221.83-35.52 225.41-35.52L225.41-35.52Q229.43-35.52 232.51-34.36 235.58-33.2 237.83-31.05L237.83-31.05 233.96-26.6Q232.21-28.08 230.18-28.79 228.16-29.5 226.06-29.5L226.06-29.5Q224.51-29.5 223.33-29.11 222.16-28.73 221.51-27.98 220.86-27.23 220.86-26.1L220.86-26.1Q220.86-25 221.48-24.25 222.11-23.5 223.66-22.84 225.21-22.18 227.96-21.3L227.96-21.3Q231.23-20.3 233.57-18.91 235.91-17.53 237.15-15.43 238.38-13.33 238.38-10.13ZM266.46-28.8L252.83-28.8 252.83-20.48 264.83-20.48 264.83-14.73 252.83-14.73 252.83-5.88 267.31-5.88 267.31 0 244.63 0 244.63-34.65 267.28-34.65 266.46-28.8Z" opacity="1" transform="matrix(1,0,0,1,0,0)" fill="#2ecc40" class="undefined-text-0" data-fill-palette-color="primary" id="text-0"></path></svg></g></svg></g><g transform="matrix(1,0,0,1,75.54432,66.80493935026296)"><svg viewBox="0 0 244.43135999999998 14.719734286413708" height="14.719734286413708" width="244.43135999999998"><g transform="matrix(1,0,0,1,0,0)"><svg width="244.43135999999998" viewBox="2.319999933242798 -36.040000915527344 598.3399658203125 36.040000915527344" height="14.719734286413708" data-palette-color="#2ecc40"><path d="M2.34-20.12L8.18-25.93 12.5-25.93 12.5-16.77 24.8-16.77 30.42-11.11 30.42-6.05 24.39 0 19.63 0 19.63-9.79 7.96-9.79 2.34-15.19 2.34-20.12ZM13.13-7.42L13.13-4.76 17.92-4.76 17.92 0 6.81-0.02 2.32-5.35 2.32-7.42 13.13-7.42ZM19.63-19.14L19.63-21.17 14.21-21.17 14.21-25.93 25.68-25.93 29.54-22.07 29.54-19.14 19.63-19.14ZM45.21-25.93L45.21 0 40.89 0 34.42-6.47 34.42-19.46 40.89-25.93 45.21-25.93ZM62.55-10.4L46.92-10.4 46.92-14.92 52.61-14.92 52.61-19.46 46.92-19.46 46.92-25.93 56.08-25.93 62.55-19.46 62.55-10.4ZM58.2 0L46.92 0 46.92-6.05 61.42-6.05 61.42-3.25 58.2 0ZM84.25-13.16L84.25-19.46 79.66-19.46 79.66-22.29 83.27-25.93 89.81-25.93 95.06-19.87 95.06-13.16 84.25-13.16ZM77.92 0L67.13 0 67.13-25.93 77.92-25.93 77.92 0ZM105.19 0L95.5-25.93 106.22-25.93 115.45 0 105.19 0ZM125.29-25.93L116.55-1.44 111.71-15.16 115.2-25.93 125.29-25.93ZM127.5 0L127.5-25.93 138.32-25.93 138.32 0 127.5 0ZM127.5-29.15L127.5-36.04 138.32-36.04 138.32-29.15 127.5-29.15ZM153.99-25.93L153.99 0 149.67 0 143.2-6.47 143.2-19.46 149.67-25.93 153.99-25.93ZM160.49-19.46L155.7-19.46 155.7-25.93 164.81-25.93 171.28-19.46 171.28-15.58 160.49-15.58 160.49-19.46ZM164.81 0L155.7 0 155.7-6.05 160.49-6.05 160.49-9.3 171.28-9.3 171.28-6.47 164.81 0ZM175.74 0L175.74-25.93 186.56-25.93 186.56 0 175.74 0ZM175.74-29.15L175.74-36.04 186.56-36.04 186.56-29.15 175.74-29.15ZM220.56-19.46L220.56-6.47 214.09 0 206.87 0 206.87-6.05 209.55-6.05 209.55-19.46 206.87-19.46 206.87-25.93 214.09-25.93 220.56-19.46ZM202.35-19.46L202.35-6.05 205.16-6.05 205.16 0 197.91 0 191.44-6.47 191.44-19.46 197.91-25.93 205.16-25.93 205.16-19.46 202.35-19.46ZM225.22-20.12L231.06-25.93 235.38-25.93 235.38-16.77 247.69-16.77 253.3-11.11 253.3-6.05 247.27 0 242.51 0 242.51-9.79 230.84-9.79 225.22-15.19 225.22-20.12ZM236.02-7.42L236.02-4.76 240.8-4.76 240.8 0 229.69-0.02 225.2-5.35 225.2-7.42 236.02-7.42ZM242.51-19.14L242.51-21.17 237.09-21.17 237.09-25.93 248.56-25.93 252.42-22.07 252.42-19.14 242.51-19.14ZM298.1 0L287.55 0 287.55-19.46 272.19-19.46 272.19-22.68 275.44-25.93 291.63-25.93 298.1-19.46 298.1 0ZM274.36-15.09L285.84-15.09 285.84-10.6 280.27-10.6 280.27-6.05 285.84-6.05 285.84-3.2 282.62 0 274.36 0 270.02-4.27 270.02-10.77 274.36-15.09ZM314.13 0L303.32 0 303.32-25.93 314.13-25.93 314.13 0ZM320.24 0L320.24-19.46 315.84-19.46 315.84-22.51 319.24-25.93 327.58-25.93 331.05-22.46 331.05 0 320.24 0ZM337.16 0L337.16-19.46 332.76-19.46 332.76-22.46 336.08-25.93 342.67-25.93 347.95-20.61 347.95 0 337.16 0ZM352.83-35.82L363.62-35.82 363.62 0 352.83 0 352.83-35.82ZM370.16-6.05L370.16-19.46 365.33-19.46 365.33-22.73 368.5-25.93 374.41-25.93 380.9-19.46 380.9-6.47 374.41 0 365.33 0 365.33-6.05 370.16-6.05ZM385.56 0L385.56-25.93 396.38-25.93 396.38 0 385.56 0ZM385.56-29.15L385.56-36.04 396.38-36.04 396.38-29.15 385.56-29.15ZM412.05-25.93L412.05 0 407.73 0 401.26-6.47 401.26-19.46 407.73-25.93 412.05-25.93ZM429.38-10.4L413.76-10.4 413.76-14.92 419.45-14.92 419.45-19.46 413.76-19.46 413.76-25.93 422.91-25.93 429.38-19.46 429.38-10.4ZM425.04 0L413.76 0 413.76-6.05 428.26-6.05 428.26-3.25 425.04 0ZM444.86 0L433.97 0 433.97-25.93 444.86-25.93 444.86 0ZM451.26 0L451.26-19.46 446.62-19.46 446.62-22.29 450.23-25.93 456.24-25.93 462.07-20.09 462.07 0 451.26 0ZM478.16-32.4L478.16-6.47 485.29-6.47 485.29 0 473.86 0 467.37-6.47 467.37-19.46 465.22-19.46 465.22-25.93 467.37-25.93 467.37-28.74 478.16-32.4ZM485.68-19.46L479.87-19.46 479.87-25.93 485.68-25.93 485.68-19.46ZM517.05 0L506.5 0 506.5-19.46 491.14-19.46 491.14-22.68 494.39-25.93 510.58-25.93 517.05-19.46 517.05 0ZM493.32-15.09L504.79-15.09 504.79-10.6 499.23-10.6 499.23-6.05 504.79-6.05 504.79-3.2 501.57 0 493.32 0 488.97-4.27 488.97-10.77 493.32-15.09ZM537.53-6.47L537.53 0 527.96 0 521.9-6.05 521.9-35.82 532.69-35.82 532.69-6.47 537.53-6.47ZM550.86-25.93L550.86 0 546.53 0 540.06-6.47 540.06-19.46 546.53-25.93 550.86-25.93ZM568.19-10.4L552.56-10.4 552.56-14.92 558.25-14.92 558.25-19.46 552.56-19.46 552.56-25.93 561.72-25.93 568.19-19.46 568.19-10.4ZM563.84 0L552.56 0 552.56-6.05 567.07-6.05 567.07-3.25 563.84 0ZM572.58-20.12L578.42-25.93 582.74-25.93 582.74-16.77 595.04-16.77 600.66-11.11 600.66-6.05 594.63 0 589.87 0 589.87-9.79 578.2-9.79 572.58-15.19 572.58-20.12ZM583.37-7.42L583.37-4.76 588.16-4.76 588.16 0 577.05-0.02 572.56-5.35 572.56-7.42 583.37-7.42ZM589.87-19.14L589.87-21.17 584.45-21.17 584.45-25.93 595.92-25.93 599.78-22.07 599.78-19.14 589.87-19.14Z" opacity="1" transform="matrix(1,0,0,1,0,0)" fill="#2ecc40" class="undefined-text-1" data-fill-palette-color="secondary" id="text-1"></path></svg></g></svg></g></svg></g></svg></g><g transform="matrix(1,0,0,1,160.485914912392,0)"><svg viewBox="0 0 76.52577017521595 112.66709896588715" height="112.66709896588715" width="76.52577017521595"><g><svg xmlns="http://www.w3.org/2000/svg" data-name="Layer 1" viewBox="24.29827308654785 2.299999952316284 51.30345153808594 95.5" x="8" y="0" height="112.66709896588715" width="60.52577017521595" class="icon-icon-0" data-fill-palette-color="accent" id="icon-0"><g data-name="Group" fill="#2ecc40" data-fill-palette-color="accent"><path data-name="Compound Path" d="M30.3 44.2H27.4a3 3 0 0 0-3.1 3.1V50A23.4 23.4 0 0 0 46.9 72.4h0.4V97.8h6V87.1A23.4 23.4 0 0 0 75.6 64.7V61.9a3 3 0 0 0-3.1-3.1H69.7a23.1 23.1 0 0 0-16.5 7.8V43.4h1.5a13 13 0 0 0 13-13v-14H61.2V2.3h-6V16.4h-10V2.3h-6V16.4H32.8v14a13 13 0 0 0 13 13h1.5v9.1A23.2 23.2 0 0 0 30.3 44.2Zm0.1 6A17.4 17.4 0 0 1 46.7 66.4 17.4 17.4 0 0 1 30.5 50.2ZM69.5 64.9A17.3 17.3 0 0 1 53.3 81.1 17.3 17.3 0 0 1 69.5 64.9ZM45.8 37.4a7 7 0 0 1-7-7v-8h23v8a7 7 0 0 1-7 7h-9Z" fill="#2ecc40" data-fill-palette-color="accent"></path></g></svg></g></svg></g><g><rect width="83.95279491239202" height="4.873922293859053" y="106.7931766720281" x="237.01168508760793" fill="#2ecc40" data-fill-palette-color="secondary"></rect><rect width="83.95279491239202" height="4.873922293859053" y="106.7931766720281" x="76.53311999999997" fill="#2ecc40" data-fill-palette-color="secondary"></rect></g></svg></g><defs></defs></svg><rect width="395.52" height="223.46628125902333" fill="none" stroke="none" visibility="hidden"></rect></g></svg></g></svg>